<?xml version="1.0" standalone="no"?>
<!DOCTYPE svg PUBLIC "-//W3C//DTD SVG 20010904//EN"
 "http://www.w3.org/TR/2001/REC-SVG-20010904/DTD/svg10.dtd">
<svg version="1.0" xmlns="http://www.w3.org/2000/svg"
 width="128.000000pt" height="128.000000pt" viewBox="0 0 128.000000 128.000000"
 preserveAspectRatio="xMidYMid meet">
<metadata>
Created by potrace 1.14, written by Peter Selinger 2001-2017
</metadata>
<g transform="translate(0.000000,128.000000) scale(0.100000,-0.100000)"
fill="#000000" stroke="none">
<path d="M287 1115 c-20 -23 -197 -287 -197 -294 0 -10 57 -85 160 -212 47
-57 133 -162 190 -233 143 -176 179 -216 201 -216 17 0 68 59 299 345 52 65
130 160 173 213 42 52 77 100 77 107 0 7 -6 18 -14 24 -7 6 -51 69 -97 139
-46 70 -84 129 -86 131 -6 9 -697 5 -706 -4z m153 -93 c0 -4 -20 -43 -43 -87
l-43 -79 -54 3 c-30 1 -57 4 -58 6 -2 2 19 37 47 79 28 41 51 79 51 83 0 4 22
6 50 5 27 -2 50 -7 50 -10z m287 8 c0 -3 14 -34 33 -70 59 -111 73 -100 -120
-100 -94 0 -170 2 -170 5 0 3 19 41 42 83 24 42 42 79 41 82 -1 3 38 5 87 5
49 0 88 -2 87 -5z m211 3 c-2 -5 21 -43 51 -86 29 -43 51 -80 49 -82 -1 -2
-28 -5 -58 -6 l-54 -3 -43 79 c-23 44 -43 83 -43 87 0 4 21 9 48 11 26 2 48 4
50 5 1 1 1 -1 0 -5z m-554 -375 c-4 -6 -2 -8 3 -5 6 4 24 -25 42 -70 17 -42
29 -74 25 -71 -3 3 -43 57 -90 119 l-84 114 37 5 c37 5 39 4 56 -38 9 -24 14
-48 11 -54z m609 78 c-12 -20 -175 -236 -178 -236 -2 0 15 42 36 93 22 50 47
108 55 127 14 33 17 35 54 32 27 -3 38 -8 33 -16z m-183 7 c0 -13 -165 -423
-170 -423 -5 0 -170 410 -170 423 0 4 77 7 170 7 94 0 170 -3 170 -7z"/>
</g>
</svg>
